<?xml version="1.0" encoding="utf-8"?>
<!DOCTYPE svg PUBLIC "-//W3C//DTD SVG 1.0//EN" "http://www.w3.org/TR/2001/REC-SVG-20010904/DTD/svg10.dtd">
<svg version="1.0" xmlns="http://www.w3.org/2000/svg" width="384px" height="431px" viewBox="0 0 384 431" preserveAspectRatio="xMidYMid meet">
 <g fill="#ffffff">
  <path d="M166.1 406.5 c-26.1 -3.8 -51 -13.4 -74.1 -28.5 -12.3 -8.1 -18.4 -13.1 -29.9 -24.3 -21.5 -21 -34.5 -41.9 -44.1 -70.3 -6.7 -20.2 -8.5 -32.9 -8.5 -59.9 0.1 -21 0.3 -24.1 2.8 -35.6 5.4 -25.7 13.3 -44.6 26.5 -63.4 27.6 -39.3 67.5 -65.1 117.2 -75.7 14.4 -3 49.2 -3.3 64.5 -0.4 21.5 4 42.3 11.8 61 23.1 29.8 17.9 56.3 46.5 70.5 76 21.1 44.2 22.2 99.5 2.9 148 -21.7 54.4 -75.2 98 -134.4 109.5 -14.7 2.8 -40.1 3.5 -54.4 1.5z m49 -18 c11.1 -1.9 24.9 -5.6 24.9 -6.7 0 -0.9 -74.5 -0.9 -91.5 0.1 l-11 0.6 11 2.7 c11.4 2.8 20.1 4.5 27 5.2 7.2 0.7 31.2 -0.4 39.6 -1.9z m62.4 -26.1 c4.1 -2.5 7.9 -5.2 8.5 -6 1.1 -1.2 -11.5 -1.4 -96.9 -1.4 -56.2 0 -98.1 0.4 -98.1 0.9 0 0.9 2.3 2.6 10.9 7.8 l5.5 3.3 81.4 0 81.4 0 7.3 -4.6z m31.4 -27.1 c2.8 -3.1 5.1 -6.1 5.1 -6.5 0 -0.4 -56.5 -0.8 -125.5 -0.8 -69 0 -125.5 0.3 -125.5 0.6 0 0.3 2.4 3.2 5.2 6.5 l5.2 5.9 115.2 0 115.2 0 5.1 -5.7z m16.3 -22.1 c0.8 -0.6 2.7 -3.4 4.2 -6.2 l2.7 -5 -143 0 c-78.7 0 -143.1 0.2 -143.1 0.5 0 1 3.2 6.8 5.3 9.9 l2 2.8 135.2 -0.4 c104 -0.3 135.6 -0.6 136.7 -1.6z m15.1 -28.4 c0.9 -2.4 1.8 -5.4 1.9 -6.8 l0.3 -2.5 -154.2 -0.2 c-84.9 -0.1 -154.3 -0.1 -154.3 0.1 0 0.7 3.9 11.7 4.5 12.6 0.4 0.7 53.5 1 150.4 1 l149.8 0 1.6 -4.2z m6.1 -23.6 c0.3 -0.5 0.8 -3.2 1.2 -6 l0.7 -5.2 -159.8 0 -159.8 0 0.7 4.6 c0.3 2.6 1.1 5.3 1.7 6 1 1.2 27.5 1.4 158 1.4 86.2 0 157 -0.4 157.3 -0.8z m-31.1 -25.9 l34.7 -0.6 0 -5.9 0 -5.8 -64.3 0 c-62.1 0 -64.5 -0.1 -66.1 -1.9 -1.1 -1.2 -1.6 -3.1 -1.4 -5.3 0.2 -2.6 1 -3.6 3.8 -5 3.2 -1.7 8.5 -1.8 65.8 -1.8 l62.3 0 -0.7 -5.7 c-0.3 -3.2 -0.8 -6.1 -1.1 -6.5 -0.2 -0.5 -20.4 -0.8 -44.7 -0.8 -43.3 0 -44.4 0 -47 -2.1 -3.2 -2.5 -3.5 -6.8 -0.5 -9.5 2 -1.8 4.5 -1.9 45.4 -2.2 l43.3 -0.3 -1.3 -4.9 c-0.7 -2.6 -1.6 -5.3 -1.9 -5.9 -0.5 -0.8 -11.1 -1.1 -34.2 -1.1 -21.7 0 -34.2 -0.4 -35.5 -1.1 -2.5 -1.3 -4 -5 -3.2 -7.8 1.2 -4.7 4 -5.1 36.8 -5.1 16.8 0 30.5 -0.2 30.5 -0.5 0 -0.3 -1.4 -3 -3.1 -6 l-3.1 -5.5 -23.8 0 c-22.5 0 -23.9 -0.1 -26.4 -2.1 -1.7 -1.3 -2.6 -3 -2.6 -4.9 0 -2.4 0.6 -3.4 3.3 -6.2 0.1 -0.1 9.3 -0.4 20.4 -0.7 l20.1 -0.6 -5.4 -5.7 -5.4 -5.8 -16.9 0 c-9.3 0 -18.1 -0.4 -19.6 -1 -2.8 -1.1 -4.9 -5.3 -4 -8.1 1.1 -3.3 4.7 -4.4 16.5 -4.9 l11.5 -0.5 -7.9 -5.7 -7.9 -5.8 -11.1 0 c-13 0 -15.6 -1.1 -15.6 -6.4 0 -1.9 0.7 -3.9 1.5 -4.6 0.8 -0.7 1.5 -1.6 1.5 -2 0 -1 -18.9 -8.4 -28 -10.9 -24.7 -6.8 -54.6 -6.8 -81.5 0 -8.8 2.3 -28.5 9.7 -28.5 10.7 0 0.4 0.7 1.6 1.5 2.6 2.1 2.8 1.8 6.2 -0.7 8.6 -1.9 1.8 -3.5 2 -13.3 2 -9.9 0 -11.4 0.2 -14.1 2.3 -1.7 1.2 -5.2 3.8 -7.8 5.7 l-4.8 3.5 11.5 0.5 c9.4 0.4 11.9 0.8 13.6 2.4 3 2.7 2.7 7 -0.5 9.5 -2.5 1.9 -4 2.1 -20.5 2.1 l-17.7 0 -5.2 5.7 -5.1 5.8 19.3 0.5 c10.6 0.3 20 0.9 20.9 1.3 4.6 2.3 4.2 9.9 -0.6 11.7 -1.5 0.6 -13.1 1 -25.8 1 l-23.2 0 -3.3 6 -3.2 5.9 32.1 0.3 32.1 0.3 1.9 2.4 c2.5 3.1 2.4 6.3 -0.4 8.9 -2.3 2.1 -3 2.2 -36.7 2.4 l-34.4 0.3 -1.7 5.7 -1.7 5.7 43.3 0.3 c41 0.3 43.4 0.4 45.4 2.2 2.7 2.5 2.7 7 -0.1 9.6 -2.1 1.9 -3.3 2 -46.9 2 l-44.6 0 -0.7 3.1 c-0.3 1.7 -0.6 4.7 -0.6 6.5 l0 3.4 62.4 0 c40.8 0 63.4 0.4 65.2 1 5.4 2.1 7 7.4 3.4 11 -2 2 -3.3 2 -67 2 l-65 0 0 5.8 c0 3.2 0.3 6.2 0.7 6.5 0.8 0.9 242.4 0.9 287.6 0z"/>
 </g>
</svg>